<svg width="13" height="13" viewBox="0 0 13 13" fill="none" xmlns="http://www.w3.org/2000/svg">
        <g clip-path="url(#clip0_318_358)">
                <path d="M6.5 13C1.25763 13 0 11.7424 0 6.5C0 1.25764 1.25763 0 6.5 0C11.7424 0 13 1.25764 13 6.5C13 11.7424 11.7424 13 6.5 13ZM4.65989 3.2169L2.62118 7.8503C2.52851 8.07538 2.44908 8.36658 2.44908 8.61813C2.44908 9.76986 3.25662 10.5774 4.40834 10.5774C4.78577 10.5774 5.09918 10.4783 5.41786 10.3774L5.41811 10.3773C5.74763 10.273 6.08277 10.167 6.5 10.167C6.9221 10.167 7.24923 10.2721 7.57239 10.376L7.5725 10.376C7.88782 10.4773 8.19939 10.5774 8.59163 10.5774C9.74336 10.5774 10.5509 9.76986 10.5509 8.61813C10.5509 8.36658 10.4715 8.07538 10.3788 7.8503L8.34015 3.2169C7.9959 2.43584 7.33402 2.01222 6.5 2.01222C5.66598 2.01222 5.00406 2.43584 4.65989 3.2169ZM4.48778 8.57845L6.5 4.02447L8.48575 8.57845C7.91649 8.30043 7.20164 8.16804 6.5 8.16804C5.77189 8.16804 5.08351 8.30043 4.48778 8.57845Z" fill="#5A46FF"/>
        </g>
        <defs>
                <clipPath id="clip0_318_358">
                        <rect width="13" height="13" fill="white"/>
                </clipPath>
        </defs>
</svg>
